<svg width="53" height="37" viewBox="0 0 53 37" fill="none" xmlns="http://www.w3.org/2000/svg">
<g clip-path="url(#clip0_1_8803)">
<rect width="53" height="37" rx="10" fill="#F93939"/>
<path d="M47.9524 0H5.04762C2.2599 0 0 2.20873 0 4.93333V32.0667C0 34.7913 2.2599 37 5.04762 37H47.9524C50.7401 37 53 34.7913 53 32.0667V4.93333C53 2.20873 50.7401 0 47.9524 0Z" fill="#F93939"/>
<path fill-rule="evenodd" clip-rule="evenodd" d="M13.8763 17.8339L10.1663 19.7406L10.8729 15.7027L7.87463 12.8414L12.0213 12.2568L13.8763 8.58144L15.7287 12.2568L19.8753 12.8414L16.872 15.7027L17.5837 19.7382L13.8763 17.8339ZM22.7146 7.3999H25.2384V9.86657H22.7146V7.3999ZM25.2384 12.3332H27.7623V14.7999H25.2384V12.3332ZM25.2384 17.2666H27.7623V19.7332H25.2384V17.2666ZM22.7146 22.1999H25.2384V24.6666H22.7146V22.1999Z" fill="#FFDA2C"/>
</g>
<defs>
<clipPath id="clip0_1_8803">
<rect width="53" height="37" rx="10" fill="white"/>
</clipPath>
</defs>
</svg>
