<svg width="53" height="37" viewBox="0 0 53 37" fill="none" xmlns="http://www.w3.org/2000/svg">
<rect x="0.5" y="0.5" width="52" height="36" rx="9.5" fill="white"/>
<path fill-rule="evenodd" clip-rule="evenodd" d="M35.3333 18.5C35.3333 23.2681 31.3785 27.1334 26.5 27.1334C21.6214 27.1334 17.6666 23.2681 17.6666 18.5C17.6666 15.7374 23.5976 14.578 28.5897 15.0146C29.1197 14.8765 29.6901 14.8 30.2857 14.8C33.0745 14.8 35.3333 16.4576 35.3333 18.5Z" fill="#232C80"/>
<path fill-rule="evenodd" clip-rule="evenodd" d="M25.2381 17.2667C25.2381 17.2667 27.4969 14.8 30.2857 14.8C33.0745 14.8 35.3333 16.4576 35.3333 18.5C35.3333 13.732 31.3785 9.8667 26.5 9.8667C22.9742 9.8667 19.9305 11.8844 18.5146 14.805C17.6666 17.2667 17.6666 17.987 17.6666 18.5C18.9285 19.7334 20.3318 19.7334 21.4523 19.7334C22.5729 19.7334 23.5799 19.2573 24.274 18.5L25.2381 17.2667Z" fill="#F93939"/>
<path fill-rule="evenodd" clip-rule="evenodd" d="M37.8571 12.3332H42.9047L37.8571 7.3999H35.3333L37.8571 12.3332ZM15.1428 12.3332H10.0952L15.1428 7.3999H17.6666L15.1428 12.3332ZM37.8571 24.6666H42.9047L37.8571 29.5999H35.3333L37.8571 24.6666ZM15.1428 24.6666H10.0952L15.1428 29.5999H17.6666L15.1428 24.6666Z" fill="#151515"/>
<rect x="0.5" y="0.5" width="52" height="36" rx="9.5" stroke="#DFE7F7"/>
</svg>
