<svg width="53" height="37" viewBox="0 0 53 37" fill="none" xmlns="http://www.w3.org/2000/svg">
<g clip-path="url(#clip0_1_8794)">
<rect width="53" height="37" rx="10" fill="#F93939"/>
<path d="M47.9524 0H5.04762C2.2599 0 0 2.20873 0 4.93333V32.0667C0 34.7913 2.2599 37 5.04762 37H47.9524C50.7401 37 53 34.7913 53 32.0667V4.93333C53 2.20873 50.7401 0 47.9524 0Z" fill="#F93939"/>
<path fill-rule="evenodd" clip-rule="evenodd" d="M0 9.8667H53V27.1334H0V9.8667Z" fill="#FFDA2C"/>
<path fill-rule="evenodd" clip-rule="evenodd" d="M22.7143 15.3477V21.5637C22.7143 23.2904 21.0183 24.6717 18.9285 24.6717H13.8809C11.7963 24.6668 10.0952 23.2781 10.0952 21.5588V15.3428C10.0952 13.9319 11.2259 12.7528 12.7805 12.3705C13.25 11.0878 14.6936 12.2373 16.4047 12.2373C18.126 12.2373 19.5595 11.0952 20.0289 12.3729C21.5785 12.7651 22.7143 13.9467 22.7143 15.3477Z" fill="#D4AF2C"/>
<path fill-rule="evenodd" clip-rule="evenodd" d="M22.7143 17.2666H25.2381V24.6666H22.7143V17.2666ZM7.57141 17.2666H10.0952V24.6666H7.57141V17.2666Z" fill="#CBCBCB"/>
<path fill-rule="evenodd" clip-rule="evenodd" d="M22.7143 22.2H25.2381V24.6666H22.7143V22.2ZM7.57141 22.2H10.0952V24.6666H7.57141V22.2Z" fill="#1A47B8"/>
<path fill-rule="evenodd" clip-rule="evenodd" d="M22.7143 14.8H25.2381V17.2667H22.7143V14.8ZM7.57141 14.8H10.0952V17.2667H7.57141V14.8Z" fill="#D4AF2C"/>
<path fill-rule="evenodd" clip-rule="evenodd" d="M12.619 14.8H15.1428V18.5H12.619V14.8ZM17.6666 19.7334H20.1904V23.4334H17.6666V19.7334Z" fill="#AF010D"/>
<path fill-rule="evenodd" clip-rule="evenodd" d="M12.619 19.7334H15.1428V23.4334H12.619V19.7334Z" fill="#FFDA2C"/>
<path fill-rule="evenodd" clip-rule="evenodd" d="M17.6666 14.8H20.1904V18.5H17.6666V14.8Z" fill="#AE6A3E"/>
<path fill-rule="evenodd" clip-rule="evenodd" d="M15.1428 14.7999L12.619 12.3333H20.1904L17.6666 14.7999H15.1428Z" fill="#AF010D"/>
<path fill-rule="evenodd" clip-rule="evenodd" d="M15.1428 9.8667H17.6666V12.3334H15.1428V9.8667Z" fill="#D4AF2C"/>
</g>
<defs>
<clipPath id="clip0_1_8794">
<rect width="53" height="37" rx="10" fill="white"/>
</clipPath>
</defs>
</svg>
