<svg width="53" height="37" viewBox="0 0 53 37" fill="none" xmlns="http://www.w3.org/2000/svg">
<rect width="53" height="37" rx="10" fill="#F93939"/>
<path fill-rule="evenodd" clip-rule="evenodd" d="M35.3383 21.3415L32.4056 22.8462L32.9659 19.6568L30.5935 17.3949L33.8745 16.9262L35.3383 14.0254L36.8021 16.9287L40.083 17.3973L37.7106 19.6543L38.2709 22.8437" fill="white"/>
<path fill-rule="evenodd" clip-rule="evenodd" d="M23.9762 27.1334C28.8547 27.1334 32.8095 23.2681 32.8095 18.5C32.8095 13.732 28.8547 9.8667 23.9762 9.8667C19.0976 9.8667 15.1428 13.732 15.1428 18.5C15.1428 23.2681 19.0976 27.1334 23.9762 27.1334ZM26.5 24.6667C29.9828 24.6667 32.8095 21.904 32.8095 18.5C32.8095 15.096 29.9828 12.3334 26.5 12.3334C23.0171 12.3334 20.1904 15.096 20.1904 18.5C20.1904 21.904 23.0171 24.6667 26.5 24.6667Z" fill="white"/>
</svg>
