<svg width="46" height="50" viewBox="0 0 46 50" fill="none" xmlns="http://www.w3.org/2000/svg">
<path d="M19.3171 1.02278C19.992 0.975345 20.6463 0.78654 21.3192 0.721075C22.793 0.696407 24.2677 0.68692 25.7415 0.726768C27.2094 0.967754 28.6929 1.17364 30.1081 1.64233C30.6062 1.78559 31.0974 1.95447 31.5838 2.13189C32.5741 2.51424 33.5029 3.03701 34.4981 3.39944C34.2481 3.60153 33.9336 3.6983 33.6172 3.74195C32.4667 3.9355 31.3201 4.18407 30.2419 4.62715C28.8775 5.19831 27.5561 5.92791 26.5199 6.97819C25.7766 7.64328 25.2141 8.48009 24.7873 9.36529C24.5519 9.92696 24.3039 10.4991 24.2609 11.111C24.1515 12.056 23.9376 12.9924 23.962 13.9478C23.7882 14.7979 24.0226 15.6983 23.6661 16.5171C23.2442 17.7116 22.1494 18.4715 21.2792 19.3444C20.955 19.6338 20.8387 20.0598 20.5946 20.4042C21.0448 21.0901 21.7187 21.5826 22.2861 22.1689C22.5244 22.4592 22.7813 22.8141 22.7022 23.2059C22.582 23.5797 22.2803 23.8653 22.1328 24.2258C22.1523 24.5304 22.4971 24.7344 22.5176 25.0456C22.5381 25.3216 22.3926 25.5826 22.4228 25.8586C22.6514 26.4137 23.3956 26.7533 23.2921 27.4213C23.1876 28.1461 22.6953 28.852 22.9561 29.6006C23.3819 30.5142 24.3761 30.9886 25.3137 31.2704C25.9222 31.4649 26.5599 31.316 27.1635 31.1888C27.978 31.1271 28.8404 30.9251 29.6207 31.2609C30.7126 31.6091 31.5535 32.4412 32.1776 33.3492C32.9013 34.4469 33.2372 35.7344 33.4345 37.0104C33.4589 37.5731 33.4599 38.1376 33.4355 38.7002C33.1972 40.7154 32.453 42.667 31.3152 44.3662C30.5593 45.6148 29.5817 46.7182 28.5767 47.7818C28.0747 48.2742 27.6391 48.8672 26.9691 49.1575C27.1518 48.4203 27.3598 47.6879 27.4799 46.9383C27.5209 46.316 27.5141 45.6907 27.4916 45.0683C27.4565 44.5475 27.1068 44.1186 27.0219 43.6139C26.639 43.7448 26.2298 43.6366 25.8421 43.7296C24.5334 43.9687 23.1983 43.8615 21.8759 43.8719C21.1288 43.7761 20.3895 43.6167 19.6355 43.5702C15.4867 42.8425 11.5323 40.9943 8.43631 38.2021C7.76242 37.7182 7.28484 37.0427 6.69593 36.4744C4.19865 33.7049 2.42603 30.3046 1.67499 26.6917C1.50701 26.0228 1.44939 25.3349 1.33414 24.6575C1.34 24.1528 1.2023 23.6594 1.21792 23.1537C1.21304 22.4232 1.21304 21.6917 1.22476 20.9611C1.42204 18.6869 1.84981 16.4042 2.77665 14.2941C5.17822 8.32923 10.4619 3.52942 16.771 1.64802C17.609 1.40608 18.4518 1.15656 19.3171 1.02278ZM8.04761 24.2495C7.61886 24.3748 7.35516 24.8036 7.19206 25.1869C7.06022 25.9564 7.84642 26.7429 8.64434 26.6034C9.0555 26.501 9.41686 26.2125 9.57996 25.8283C9.70399 25.3719 9.64442 24.8292 9.2313 24.5247C8.94905 24.1623 8.45877 24.2144 8.04761 24.2495ZM12.633 24.2505C12.1075 24.4042 11.6895 24.9649 11.7647 25.5076C11.7286 25.9507 12.1456 26.2457 12.4679 26.4858C13.1975 26.9232 14.136 26.2552 14.2249 25.5067C14.2893 25.0854 14.01 24.7154 13.72 24.4345C13.4367 24.1499 12.9972 24.241 12.633 24.2505ZM17.23 24.2467C16.7056 24.3938 16.3442 24.9127 16.2612 25.4222C16.393 25.9801 16.8091 26.5067 17.4117 26.6148C18.193 26.6755 18.9704 25.9089 18.777 25.1395C18.6764 24.8492 18.4919 24.5854 18.2526 24.3871C17.9645 24.166 17.5699 24.2429 17.23 24.2467Z" fill="#4385F6"/>
<path d="M36.922 6.81501C37.3469 6.54271 37.8049 6.1281 38.3577 6.31311C39.431 7.29414 40.4741 8.3207 41.3325 9.48864C42.653 11.2173 43.6755 13.1499 44.4051 15.1812C44.9403 16.5399 45.1825 17.9801 45.4559 19.4023C45.4491 19.8387 45.5839 20.2609 45.5741 20.6964C45.5644 21.8084 45.5897 22.9213 45.5614 24.0332C45.4432 24.5361 45.5145 25.0588 45.3749 25.5579C45.1717 26.5332 44.992 27.5152 44.7186 28.4754C44.3826 29.427 44.0584 30.3871 43.5827 31.2837C42.9001 32.8425 41.9254 34.2638 40.8901 35.6205C40.7387 35.8378 40.4936 35.9716 40.2416 36.0503C40.1332 35.6015 39.8354 35.2296 39.6107 34.8321C39.1322 34.1699 38.555 33.4839 37.717 33.26C37.0959 33.204 36.4718 33.3017 35.8672 33.4336C35.2197 33.4697 34.5654 33.4735 33.9179 33.4355C33.1385 33.1319 32.3064 32.7761 31.7985 32.0949C31.6266 31.9042 31.6862 31.6376 31.6696 31.407C31.6852 30.9222 31.612 30.4156 31.8112 29.9564C31.8913 29.6964 32.032 29.4346 32.0163 29.1604C31.8122 28.704 31.3913 28.3843 31.1227 27.9687C31.0045 27.6044 31.1959 27.2173 31.1032 26.8482C31.0143 26.6006 30.8571 26.3643 30.8873 26.0911C30.8502 25.5683 31.4831 25.1917 31.2868 24.6518C31.0143 23.6537 29.9087 23.2514 29.3589 22.4374C29.2866 22.0921 29.2768 21.6879 29.5151 21.3966C29.8462 20.8928 30.3531 20.5427 30.7877 20.1309C31.3551 19.5332 31.9841 18.9535 32.3015 18.1841C32.5164 17.7031 32.4519 17.1689 32.5759 16.668C32.7117 16.1793 32.5808 15.6661 32.7283 15.1803C32.8006 14.741 32.6902 14.2884 32.7986 13.8511C32.9061 13.4535 32.7967 13.0342 32.9168 12.6376C33.0936 12.0057 33.1854 11.3492 33.4364 10.7372C33.6669 10.1347 34.0468 9.60249 34.4296 9.08446C35.0732 8.15752 35.9942 7.45638 36.922 6.81501Z" fill="#F8BD07"/>
</svg>
